<?xml version="1.0" standalone="no"?>
<!DOCTYPE svg PUBLIC "-//W3C//DTD SVG 20010904//EN"
 "http://www.w3.org/TR/2001/REC-SVG-20010904/DTD/svg10.dtd">
<svg version="1.0" xmlns="http://www.w3.org/2000/svg"
 width="300.000000pt" height="300.000000pt" viewBox="0 0 300.000000 300.000000"
 preserveAspectRatio="xMidYMid meet">
<metadata>
Created by potrace 1.14, written by Peter Selinger 2001-2017
</metadata>
<g transform="translate(0.000000,300.000000) scale(0.100000,-0.100000)"
fill="#000000" stroke="none">
<path d="M0 1500 l0 -1500 1500 0 1500 0 0 1500 0 1500 -1500 0 -1500 0 0
-1500z m2231 652 c122 -33 214 -85 295 -166 124 -124 176 -262 176 -471 1 -78
-5 -144 -16 -190 -56 -233 -216 -391 -461 -456 -70 -19 -116 -22 -372 -26
l-293 -5 0 672 0 672 298 -4 c260 -5 307 -8 373 -26z m-1290 -266 c89 -19 161
-57 227 -119 100 -95 142 -199 142 -353 l0 -94 -393 0 c-217 0 -396 -2 -399
-5 -9 -10 12 -117 31 -153 47 -90 136 -141 247 -142 79 0 121 11 177 48 39 26
87 95 87 125 0 15 15 17 120 17 118 0 120 0 120 -22 0 -43 -59 -149 -116 -209
-101 -105 -248 -157 -413 -146 -145 10 -249 56 -338 149 -96 103 -137 216
-137 383 0 169 41 281 141 386 120 126 308 176 504 135z"/>
<path d="M1787 1973 c-4 -3 -7 -213 -7 -466 l0 -459 178 5 c201 5 244 15 340
77 72 46 132 130 159 220 25 85 23 247 -5 335 -50 161 -178 261 -366 285 -83
11 -290 13 -299 3z"/>
<path d="M718 1707 c-103 -29 -175 -113 -196 -225 l-9 -52 290 0 290 0 -7 52
c-9 66 -26 106 -65 150 -61 69 -200 104 -303 75z"/>
</g>
</svg>
