<svg id="Layer_1" data-name="Layer 1" xmlns="http://www.w3.org/2000/svg" xmlns:xlink="http://www.w3.org/1999/xlink" viewBox="0 0 245.6 202.73"><defs><style>.cls-1,.cls-18{fill:none;}.cls-2{fill:#0aa1f0;}.cls-3{fill:#0a85bc;}.cls-4{fill:#8fd1fa;}.cls-5{fill:#169375;}.cls-6{fill:#f6f6fc;}.cls-7{fill:#1abd9c;}.cls-8{fill:#ccddda;}.cls-9{fill:#e9fffb;}.cls-10{fill:url(#linear-gradient);}.cls-11{isolation:isolate;}.cls-12{clip-path:url(#clip-path);}.cls-13{fill:#fff;}.cls-14{fill:#abdbd0;}.cls-15{fill:#d6e8e4;}.cls-16{fill:#848588;}.cls-17{clip-path:url(#clip-path-2);}.cls-18{stroke:#6b33fb;stroke-linecap:round;stroke-linejoin:round;}.cls-19{fill:#e24765;}.cls-20{fill:#ef6a7a;}.cls-21{fill:#9e334c;}.cls-22{fill:#fc5071;}.cls-23{fill:#afafaf;}.cls-24{fill:#cecece;}.cls-25{clip-path:url(#clip-path-3);}.cls-26{clip-path:url(#clip-path-4);}.cls-27{clip-path:url(#clip-path-5);}.cls-28{fill:url(#linear-gradient-2);}.cls-29{fill:url(#linear-gradient-3);}.cls-30{fill:url(#linear-gradient-4);}.cls-31{fill:url(#linear-gradient-5);}.cls-32{fill:url(#linear-gradient-6);}.cls-33{clip-path:url(#clip-path-6);}.cls-34{fill:url(#linear-gradient-7);}.cls-35{fill:#1a8bc1;}.cls-36{fill:#1b87bc;}.cls-37{fill:#1984b7;}.cls-38{fill:#1a80b2;}.cls-39{fill:#187ead;}.cls-40{fill:#137aa9;}.cls-41{fill:#1476a4;}.cls-42{fill:#12739f;}.cls-43{fill:#136e9a;}.cls-44{fill:#116b95;}.cls-45{fill:#126790;}.cls-46{fill:#10648b;}.cls-47{fill:#106085;}.cls-48{fill:#0e5d80;}.cls-49{fill:#24a8e8;}.cls-50{fill:#23aced;}.cls-51{fill:#25aff2;}.cls-52{fill:#50bbf7;}.cls-53{fill:#5cbff8;}.cls-54{fill:#66c2f8;}.cls-55{fill:#22a4e3;}.cls-56{fill:#23a0df;}.cls-57{fill:#1c9dda;}.cls-58{fill:#6ec4f8;}.cls-59{fill:#74c7f9;}.cls-60{fill:#23e5b6;}.cls-61{fill:#e1ae9c;}.cls-62{fill:#693138;}</style><linearGradient id="linear-gradient" x1="138.92" y1="59.44" x2="218.74" y2="59.44" gradientUnits="userSpaceOnUse"><stop offset="0" stop-color="#1abd9c"/><stop offset="0.29" stop-color="#19b696"/><stop offset="0.71" stop-color="#18a485"/><stop offset="1" stop-color="#169375"/></linearGradient><clipPath id="clip-path" transform="translate(0 0)"><polygon class="cls-1" points="88.13 103.67 137.6 74.92 206.31 114.59 156.84 143.34 88.13 103.67"/></clipPath><clipPath id="clip-path-2" transform="translate(0 0)"><polygon class="cls-1" points="154.74 175.35 191.65 153.9 220.73 170.69 183.82 192.14 154.74 175.35"/></clipPath><clipPath id="clip-path-3" transform="translate(0 0)"><polygon class="cls-1" points="149.66 34.88 149.67 28.99 166.66 38.79 166.64 44.69 149.66 34.88"/></clipPath><clipPath id="clip-path-4" transform="translate(0 0)"><polygon class="cls-1" points="150.05 46.69 150.07 40.79 167.05 50.59 167.03 56.49 150.05 46.69"/></clipPath><clipPath id="clip-path-5" transform="translate(0 0)"><polygon class="cls-1" points="187.05 66.95 187.07 59.61 208.2 71.81 208.18 79.15 187.05 66.95"/></clipPath><linearGradient id="linear-gradient-2" x1="187.07" y1="66.43" x2="208.2" y2="66.43" xlink:href="#linear-gradient"/><linearGradient id="linear-gradient-3" x1="187.06" y1="66.12" x2="196.9" y2="66.12" xlink:href="#linear-gradient"/><linearGradient id="linear-gradient-4" x1="197.97" y1="72.53" x2="208.19" y2="72.53" xlink:href="#linear-gradient"/><linearGradient id="linear-gradient-5" x1="187.05" y1="70.79" x2="202.85" y2="70.79" xlink:href="#linear-gradient"/><linearGradient id="linear-gradient-6" x1="203.65" y1="77.12" x2="208.18" y2="77.12" xlink:href="#linear-gradient"/><clipPath id="clip-path-6" transform="translate(0 0)"><polygon class="cls-1" points="150.44 58.48 150.46 52.59 167.44 62.4 167.43 68.29 150.44 58.48"/></clipPath><linearGradient id="linear-gradient-7" x1="-67.22" y1="133.68" x2="-66.72" y2="133.68" gradientUnits="userSpaceOnUse"><stop offset="0" stop-color="#0c5747"/><stop offset="0.41" stop-color="#0d5e4c"/><stop offset="0.99" stop-color="#117059"/><stop offset="1" stop-color="#117059"/></linearGradient></defs><polygon class="cls-2" points="213.25 100.34 162.77 71 195.08 52.34 245.57 81.68 213.25 100.34"/><path class="cls-3" d="M209.19,107.39c0-.15,0-.3,0-.45s0-.1,0-.15a2.89,2.89,0,0,1,0-.29c0-.11,0-.22.05-.33s0-.15.05-.22a1.6,1.6,0,0,1,0-.21c0-.1.05-.19.07-.29l.06-.17c0-.11.07-.22.11-.33l0-.13.18-.45,0-.05.18-.4a.75.75,0,0,1,.07-.12c.06-.12.12-.24.19-.36a.3.3,0,0,0,0-.08c.09-.14.17-.28.26-.41l.08-.12c.07-.1.13-.2.2-.29l.12-.16.18-.23.16-.2.15-.17a3.83,3.83,0,0,1,.28-.29l.17-.17a.86.86,0,0,1,.14-.13l.23-.2.14-.12.25-.19.13-.09a3.73,3.73,0,0,1,.39-.25L162.77,71l-.39.25-.12.09a2.48,2.48,0,0,0-.26.19l-.14.12-.23.2-.14.13-.09.08-.08.09a2.44,2.44,0,0,0-.27.29l-.09.09-.07.08-.16.2-.1.12-.08.11-.12.16-.07.1a2.14,2.14,0,0,0-.13.19.83.83,0,0,1-.08.12l0,0-.21.35v0a.3.3,0,0,0,0,.08c-.05.08-.1.16-.14.24l-.06.12-.06.12-.06.11c0,.1-.09.19-.13.29l0,0h0l-.15.37a.19.19,0,0,0,0,.07.69.69,0,0,0-.05.13l-.07.19s0,.09,0,.14a1.09,1.09,0,0,0-.05.17l0,.1c0,.06,0,.13,0,.19a1.6,1.6,0,0,0,0,.21s0,0,0,.07l0,.15c0,.11,0,.22,0,.33s0,.06,0,.09,0,.13,0,.2,0,.1,0,.15,0,.3,0,.45a4.15,4.15,0,0,0,.19,1.28,2.46,2.46,0,0,0,.51.93,2.39,2.39,0,0,0,.23.22,1.51,1.51,0,0,0,.26.18L210.38,110A2.87,2.87,0,0,1,209.19,107.39Z" transform="translate(0 0)"/><path class="cls-4" d="M245.6,91.06l-32.32,18.66c-2.25,1.3-4.08.26-4.09-2.33a8.93,8.93,0,0,1,4.07-7l32.31-18.66v1.39l-1.12.65v5.46l1.12.49Z" transform="translate(0 0)"/><path class="cls-5" d="M245.59,89.67l-32.91,19a2.49,2.49,0,0,1-1.23.4c-.91,0-1-1.06-1.06-1.68a7.78,7.78,0,0,1,3.47-6l30.6-17.67v5.46Z" transform="translate(0 0)"/><path class="cls-2" d="M245.4,89.78l-32.72,18.89a2.49,2.49,0,0,1-1.23.4,1,1,0,0,1-.94-.79,3.22,3.22,0,0,1-.12-.89,7.78,7.78,0,0,1,3.47-6l30.6-17.67-.18,5.56Z" transform="translate(0 0)"/><path class="cls-6" d="M244.47,89.18,212,107.93a2.59,2.59,0,0,1-1.23.4.94.94,0,0,1-.3,0,3.22,3.22,0,0,1-.12-.89,7.78,7.78,0,0,1,3.47-6l30.6-17.67Z" transform="translate(0 0)"/><polygon class="cls-7" points="213.25 86.46 162.77 57.12 195.08 38.46 245.57 67.8 213.25 86.46"/><path class="cls-5" d="M209.19,93.51c0-.15,0-.3,0-.46s0-.09,0-.14a2.54,2.54,0,0,1,0-.29c0-.11,0-.22.05-.33s0-.15.05-.22a1.6,1.6,0,0,1,0-.21c0-.1.05-.2.07-.29l.06-.17c0-.11.07-.22.11-.33l0-.13.18-.45,0,0,.18-.4a.75.75,0,0,1,.07-.12l.19-.37a.16.16,0,0,0,0-.07l.26-.42.08-.11.2-.3.12-.15.18-.23.16-.2.15-.17a3.83,3.83,0,0,1,.28-.29l.17-.18.14-.12.23-.21.14-.11.25-.19a.6.6,0,0,1,.13-.09,2.59,2.59,0,0,1,.39-.25L162.77,57.12a4.25,4.25,0,0,0-.39.25l-.12.08-.26.2-.14.11-.23.21-.14.12-.09.08-.08.1a2.44,2.44,0,0,0-.27.29l-.09.09-.07.08-.16.2-.1.12a.76.76,0,0,0-.08.11l-.12.15-.07.11a1.27,1.27,0,0,0-.13.19.76.76,0,0,1-.08.11l0,.05-.21.35v0l0,.07-.14.25-.06.12-.06.12-.06.11c0,.09-.09.19-.13.29l0,0h0l-.15.37a.14.14,0,0,0,0,.07.69.69,0,0,0-.05.13l-.07.18c0,.05,0,.1,0,.15a.84.84,0,0,0-.05.17l0,.1c0,.06,0,.13,0,.19a1.6,1.6,0,0,0,0,.21.64.64,0,0,0,0,.07l0,.15c0,.11,0,.22,0,.33s0,.06,0,.09,0,.13,0,.2,0,.1,0,.14,0,.31,0,.46a4.15,4.15,0,0,0,.19,1.28,2.34,2.34,0,0,0,.51.92,1.67,1.67,0,0,0,.23.23,1.51,1.51,0,0,0,.26.18l50.49,29.34A2.84,2.84,0,0,1,209.19,93.51Z" transform="translate(0 0)"/><path class="cls-8" d="M245.6,77.18,213.28,95.84c-2.25,1.3-4.08.26-4.09-2.34a8.93,8.93,0,0,1,4.07-7L245.57,67.8v1.39l-1.12.65v5.45l1.12.5Z" transform="translate(0 0)"/><path class="cls-5" d="M245.59,75.79l-32.91,19a2.59,2.59,0,0,1-1.23.4c-.91,0-1-1.06-1.06-1.69a7.81,7.81,0,0,1,3.47-6l30.6-17.66v5.45Z" transform="translate(0 0)"/><path class="cls-5" d="M245.4,75.9,212.68,94.79a2.59,2.59,0,0,1-1.23.4,1,1,0,0,1-.94-.79,3.24,3.24,0,0,1-.12-.9,7.81,7.81,0,0,1,3.47-6l30.6-17.66-.18,5.56Z" transform="translate(0 0)"/><path class="cls-6" d="M244.47,75.29,212,94a2.51,2.51,0,0,1-1.23.41.94.94,0,0,1-.3,0,3.24,3.24,0,0,1-.12-.9,7.81,7.81,0,0,1,3.47-6l30.6-17.66Z" transform="translate(0 0)"/><path class="cls-8" d="M221.21,118.83a.28.28,0,0,0,0,.09.14.14,0,0,0,0,.07l0,.08a.25.25,0,0,1,0,.07.2.2,0,0,0,0,.08.21.21,0,0,0,0,.06.61.61,0,0,1-.07.1l0,.05a.49.49,0,0,1-.12.13l0,0-.09.07-.07.06-.1.07-.11.07L165.21,152a2.32,2.32,0,0,1-.39.18l-.1,0-.26.08-.27.07-.34.05-.08,0-.46,0h-.07a3.91,3.91,0,0,1-1.91-.46v2.42a3.86,3.86,0,0,0,1.82.45h.28l.31,0h.11l.24,0,.1,0,.27-.06.15,0,.11,0,.11,0,.38-.18,55.21-32.09,0,0,.07,0,.1-.07.08-.06.08-.07,0,0,0,0,.11-.12,0,0,0,0,.06-.09,0,0v0l0-.09a.08.08,0,0,0,0,0v0s0,0,0-.08l0-.05v0s0,0,0-.08v-2.42Z" transform="translate(0 0)"/><path class="cls-7" d="M163.15,152.41v2.42l-.27,0a1.24,1.24,0,0,1-.27,0l-.27,0-.29-.07-.32-.11a3,3,0,0,1-.4-.19L78.9,106.78a1.37,1.37,0,0,1-.81-1.13v-2.41a1.4,1.4,0,0,0,.81,1.13L161.33,152a3.54,3.54,0,0,0,.39.19l.33.11.29.07.27.05.27,0Z" transform="translate(0 0)"/><path class="cls-9" d="M220.4,117.62a1.19,1.19,0,0,1,0,2.25L165.21,152a4.28,4.28,0,0,1-3.88,0L78.91,104.37a1.19,1.19,0,0,1,0-2.25L134.11,70A4.22,4.22,0,0,1,138,70Z" transform="translate(0 0)"/><path class="cls-1" d="M220.13,49.06l2.09-1.21a4.25,4.25,0,0,1,1.94,3.36l-2.08,1.21A4.29,4.29,0,0,0,220.13,49.06Z" transform="translate(0 0)"/><path class="cls-7" d="M223.22,48.74l-.07-.09-.08-.09-.07-.08-.08-.08-.08-.08-.09-.08-.09-.08-.08-.07-.09-.07-.08-.06-.08-.05-.09,0h0L139.81.27l-.06,0-.08,0,0,0h0l-.08,0-.08,0h-.07l-.09,0h-.07l-.09,0h-.28l-.11,0h0l-.11,0h0l-.15.07-2.09,1.22.15-.07.12,0h0l.14,0h0a.38.38,0,0,1,.15,0h0a.9.9,0,0,1,.16,0h0l.17.05h0l.18.07h0l.19.1,82.41,47.58h0l.09,0,.08.06.08.06.09.06.08.07.09.08.09.08.08.08a.6.6,0,0,0,.08.08l.07.09.08.09.07.09.09.11,2.09-1.21Z" transform="translate(0 0)"/><path class="cls-8" d="M224.16,51.12V51s0-.06,0-.1h0a.28.28,0,0,0,0-.09s0-.07,0-.1,0-.06,0-.1,0-.06,0-.1a.36.36,0,0,1,0-.1l0-.1,0-.11,0-.1a1,1,0,0,1,0-.1l0-.09a.3.3,0,0,1,0-.1.36.36,0,0,1,0-.09l-.05-.09s0-.07,0-.11l-.07-.11-.09-.17-.15-.24-.12-.17-2.09,1.21.12.18.15.23.1.17.06.12a.47.47,0,0,0,0,.1.36.36,0,0,0,0,.09,1,1,0,0,0,0,.1.36.36,0,0,0,0,.09l0,.1a1,1,0,0,1,0,.1l0,.1,0,.1,0,.1s0,.07,0,.11,0,.06,0,.1,0,.06,0,.1,0,.06,0,.09a.38.38,0,0,1,0,.1.28.28,0,0,1,0,.09v.1a.25.25,0,0,1,0,.08l-.19,63.86a1.48,1.48,0,0,1,0,.21v0a1.1,1.1,0,0,1,0,.18v0a1,1,0,0,1,0,.17v0s0,.1-.05.14v0a1,1,0,0,1-.08.14,1.09,1.09,0,0,1-.13.17l0,0-.16.13,2.09-1.22a1,1,0,0,0,.16-.12s0,0,0,0a.76.76,0,0,0,.13-.17h0l.08-.13h0a.36.36,0,0,0,0-.09l0,0v0a.44.44,0,0,0,0-.1v-.1s0-.06,0-.09v-.06h0v-.21h0l.18-63.85Z" transform="translate(0 0)"/><path class="cls-9" d="M220.13,49.06a4.29,4.29,0,0,1,2,3.36l-.19,63.86c0,1.23-.87,1.73-1.95,1.11L137.53,69.81a4.25,4.25,0,0,1-1.94-3.36l.18-63.86c0-1.23.88-1.73,1.95-1.11Z" transform="translate(0 0)"/><path class="cls-10" d="M139.23,66.94a1.18,1.18,0,0,1-.31-.53l.17-60.29,79.34,45.81a1.24,1.24,0,0,1,.31.53l-.17,60.29Z" transform="translate(0 0)"/><g class="cls-11"><g class="cls-12"><path class="cls-7" d="M170.79,124.32l2.07-1.2,4.16,2.4-2.07,1.2-4.16-2.4M112.11,90.44l4.13-2.4,4.17,2.4-4.14,2.4-4.16-2.4m4.59,2.65,4.13-2.4,4.16,2.4-4.13,2.4-4.16-2.4m4.67,2.7,4.14-2.41,4.16,2.41-4.14,2.4-4.16-2.4m4.77,2.75,4.13-2.4,5.44,3.13-4.14,2.41-5.43-3.14m5.84,3.37,4.13-2.4,23,13.3-4.13,2.4-23-13.3m23.53,13.59,4.14-2.41,5.25,3-4.13,2.4-5.26-3m5.69,3.28,4.14-2.4,4.16,2.4-4.14,2.41-4.16-2.41m4.82,2.79,4.14-2.41,4.16,2.41-4.13,2.4-4.17-2.4m7,1.42,1.85-1.07,4.16,2.4-1.85,1.08L173.07,123m2.45,4.06,4.14-2.4,4.16,2.4-4.14,2.4-4.16-2.4M116.77,87.73l4.13-2.4L126,88.24l-4.14,2.41-5-2.92m5.79,3.34,4.13-2.4,4.17,2.4-4.14,2.41-4.16-2.41M132,96.51l4.13-2.41,4.16,2.4-4.13,2.41L132,96.51m4.7,2.71,4.14-2.4,4.16,2.4-4.14,2.4-4.16-2.4m4.7,2.72,4.14-2.41,4.16,2.41-4.13,2.4-4.17-2.4m4.71,2.71,4.13-2.4,4.16,2.4-4.13,2.4-4.16-2.4m4.7,2.72,4.13-2.41,4.17,2.41-4.14,2.4-4.16-2.4m4.71,2.71,4.13-2.4,4.16,2.4-4.14,2.4-4.15-2.4m4.7,2.72,4.13-2.4,4.16,2.4-4.13,2.4-4.16-2.4m4.7,2.71,4.14-2.4,4.16,2.4-4.14,2.41-4.16-2.41m4.7,2.72,4.14-2.4,4.16,2.4-4.13,2.4-4.17-2.4m4.79,2.76,4.14-2.4,10,5.76-4.13,2.4-10-5.76M127.27,93.78l4.14-2.4,4.16,2.4-4.14,2.41-4.16-2.41m-6-8.67,4.14-2.4,7.66,4.43L129,89.54l-7.67-4.43m8.19,4.68,4.14-2.4,4.16,2.4-4.14,2.4-4.16-2.4m4.7,2.72,4.14-2.41,4.16,2.41-4.13,2.4-4.17-2.4m4.71,2.71,4.13-2.4,4.16,2.4L143,97.63l-4.16-2.41m4.7,2.72,4.13-2.4,4.17,2.4-4.14,2.4-4.16-2.4m4.71,2.71,4.13-2.4,4.16,2.4-4.13,2.41-4.16-2.41m4.7,2.72,4.13-2.4,4.16,2.4-4.13,2.4-4.16-2.4m4.7,2.72,4.14-2.41,4.16,2.41-4.14,2.4-4.16-2.4m4.7,2.71,4.14-2.4,4.16,2.4-4.13,2.4-4.17-2.4m4.71,2.72,4.13-2.41,4.16,2.41-4.13,2.4-4.16-2.4m4.7,2.71,4.14-2.4,4.16,2.4-4.14,2.4-4.16-2.4m4.71,2.72,4.13-2.4,4.16,2.4-4.13,2.4-4.16-2.4m4.66,2.69,4.13-2.4,4.16,2.4-4.13,2.4-4.16-2.4M125.86,82.45,130,80l6.53,3.77-4.14,2.4-6.53-3.76m7.08,4.08,4.13-2.4,4.17,2.4-4.14,2.4-4.16-2.4m4.7,2.72,4.14-2.41,4.16,2.41-4.14,2.4-4.16-2.4M142.35,92l4.13-2.4,4.16,2.4-4.13,2.4L142.35,92m4.7,2.72,4.14-2.4,4.15,2.4-4.13,2.4-4.16-2.4m4.7,2.71,4.14-2.4,4.16,2.4-4.13,2.41-4.17-2.41m4.71,2.72,4.13-2.4,4.16,2.4-4.13,2.4-4.16-2.4m4.7,2.71,4.14-2.4,4.16,2.4-4.14,2.41-4.16-2.41m4.7,2.72,4.14-2.4,4.16,2.4-4.13,2.4-4.17-2.4m4.71,2.72,4.13-2.41,4.16,2.41-4.13,2.4-4.16-2.4m4.7,2.71,4.14-2.4,4.16,2.4-4.14,2.4-4.16-2.4m4.71,2.72,4.13-2.4,4.16,2.4-4.13,2.4-4.16-2.4m4.66,2.69,4.13-2.4,4.16,2.4-4.13,2.4-4.16-2.4m4.65,2.69,4.14-2.41,4.16,2.41-8.68,5-3.07-1.78,4.54-2.64-1.09-.62M130.4,79.81l4.14-2.41,4.16,2.41-4.13,2.4-4.17-2.4m4.7,2.71,4.14-2.4,4.16,2.4-4.14,2.4-4.16-2.4m4.71,2.72,4.13-2.41,4.16,2.41L144,87.64l-4.16-2.4m4.7,2.71,4.14-2.4,4.16,2.4-4.14,2.4L144.51,88m4.7,2.72,4.14-2.41,4.16,2.41-4.13,2.4-4.17-2.4m4.71,2.71,4.13-2.4,4.16,2.4-4.13,2.41-4.16-2.41m4.7,2.72,4.14-2.4,4.16,2.4-4.14,2.4-4.16-2.4m4.7,2.71,4.14-2.4,4.16,2.4-4.13,2.41-4.17-2.41m4.71,2.72,4.13-2.4,4.16,2.4-4.13,2.4-4.16-2.4m4.7,2.72,4.14-2.41,4.16,2.41-4.14,2.4-4.16-2.4m4.71,2.71,4.13-2.4,4.16,2.4-4.13,2.4-4.16-2.4m4.7,2.72,4.13-2.41,4.16,2.41-4.13,2.4-4.16-2.4m4.59,2.65,4.13-2.41,4.17,2.41-4.14,2.4-4.16-2.4m4.79,2.76,4.13-2.4,6.48,3.74-4.14,2.4-6.47-3.74M138.19,78.57l1.65-1,3.69,2.13-1.65,1-3.69-2.13m4.63,2.67,1.65-.95,3.69,2.13-1.65,1-3.69-2.13m4.63,2.68,1.65-1,3.69,2.13-1.65,1-3.69-2.13m4.63,2.67,1.65-1,3.69,2.13-1.64,1-3.7-2.13m30.69,17.71,1.64-1,3.69,2.13-1.64,1-3.69-2.13M187.4,107l1.64-1,3.69,2.13-1.64,1L187.4,107m4.63,2.67,1.64-1,3.69,2.13-1.64,1L192,109.65m4.63,2.67,1.64-.95L202,113.5l-1.64,1-3.69-2.14m9.29,2.07L138,75.13a.83.83,0,0,0-.72,0l-26.15,15.2c-.2.12-.2.3,0,.42l68,39.25a.76.76,0,0,0,.72,0L206,114.8a.22.22,0,0,0,0-.41" transform="translate(0 0)"/><polyline class="cls-13" points="140.26 96.5 136.1 94.1 131.97 96.5 136.13 98.91 140.26 96.5"/><polyline class="cls-13" points="135.57 93.78 131.41 91.38 127.27 93.78 131.43 96.19 135.57 93.78"/><polyline class="cls-13" points="130.85 91.07 126.69 88.67 122.56 91.07 126.72 93.48 130.85 91.07"/><polyline class="cls-13" points="154.37 104.65 150.21 102.25 146.08 104.65 150.24 107.05 154.37 104.65"/><polyline class="cls-13" points="149.67 101.94 145.51 99.53 141.37 101.94 145.53 104.34 149.67 101.94"/><polyline class="cls-13" points="144.97 99.22 140.81 96.82 136.67 99.22 140.83 101.62 144.97 99.22"/><polyline class="cls-13" points="168.48 112.8 164.32 110.4 160.19 112.8 164.35 115.2 168.48 112.8"/><polyline class="cls-13" points="163.78 110.08 159.62 107.68 155.49 110.08 159.65 112.48 163.78 110.08"/><polyline class="cls-13" points="159.08 107.37 154.91 104.96 150.78 107.37 154.94 109.77 159.08 107.37"/><polyline class="cls-13" points="177.89 118.23 173.73 115.83 169.59 118.23 173.76 120.63 177.89 118.23"/><polyline class="cls-13" points="179.09 124.32 174.92 121.92 173.07 123 177.23 125.4 179.09 124.32"/><polyline class="cls-13" points="177.02 125.52 172.86 123.12 170.79 124.32 174.95 126.72 177.02 125.52"/><polyline class="cls-13" points="159.15 112.81 136.11 99.51 131.98 101.91 155.02 115.21 159.15 112.81"/><polyline class="cls-13" points="135.71 99.27 130.27 96.14 126.14 98.54 131.57 101.68 135.71 99.27"/><polyline class="cls-13" points="129.67 95.79 125.51 93.38 121.37 95.79 125.53 98.19 129.67 95.79"/><polyline class="cls-13" points="124.99 93.09 120.83 90.69 116.7 93.09 120.86 95.49 124.99 93.09"/><polyline class="cls-13" points="120.41 90.44 116.24 88.04 112.11 90.44 116.27 92.84 120.41 90.44"/><polyline class="cls-13" points="174.32 121.57 170.16 119.17 166.03 121.57 170.19 123.97 174.32 121.57"/><polyline class="cls-13" points="169.5 118.78 165.34 116.38 161.2 118.78 165.37 121.19 169.5 118.78"/><polyline class="cls-13" points="164.9 116.13 159.65 113.09 155.51 115.5 160.77 118.53 164.9 116.13"/><polyline class="cls-13" points="183.82 127.05 179.66 124.65 175.52 127.05 179.68 129.45 183.82 127.05"/><polyline class="cls-13" points="188.49 124.35 178.51 118.59 174.38 120.99 184.36 126.75 188.49 124.35"/><polyline class="cls-13" points="173.19 115.51 169.03 113.11 164.89 115.51 169.05 117.92 173.19 115.51"/><polyline class="cls-13" points="147.17 95.22 143.01 92.82 138.88 95.22 143.04 97.63 147.17 95.22"/><polyline class="cls-13" points="142.47 92.51 138.31 90.11 134.17 92.51 138.34 94.91 142.47 92.51"/><polyline class="cls-13" points="137.77 89.79 133.6 87.39 129.47 89.79 133.63 92.19 137.77 89.79"/><polyline class="cls-13" points="161.28 103.37 157.12 100.97 152.99 103.37 157.15 105.77 161.28 103.37"/><polyline class="cls-13" points="156.58 100.66 152.42 98.25 148.28 100.66 152.45 103.06 156.58 100.66"/><polyline class="cls-13" points="151.88 97.94 147.71 95.53 143.58 97.94 147.74 100.34 151.88 97.94"/><polyline class="cls-13" points="175.39 111.52 171.23 109.11 167.1 111.52 171.26 113.92 175.39 111.52"/><polyline class="cls-13" points="170.69 108.8 166.53 106.4 162.4 108.8 166.56 111.2 170.69 108.8"/><polyline class="cls-13" points="165.99 106.08 161.83 103.68 157.69 106.08 161.85 108.49 165.99 106.08"/><polyline class="cls-13" points="184.8 116.95 180.64 114.55 176.51 116.95 180.67 119.35 184.8 116.95"/><polyline class="cls-13" points="189.47 119.64 185.3 117.24 181.17 119.64 185.33 122.04 189.47 119.64"/><polyline class="cls-13" points="192.93 116.38 188.77 113.98 184.64 116.38 188.8 118.78 192.93 116.38"/><polyline class="cls-13" points="197.59 119.07 193.43 116.66 189.29 119.07 190.38 119.69 185.84 122.33 188.91 124.11 197.59 119.07"/><polyline class="cls-13" points="195.03 112.33 190.87 109.92 186.73 112.33 190.89 114.73 195.03 112.33"/><polyline class="cls-13" points="202.13 116.43 195.65 112.69 191.52 115.09 197.99 118.83 202.13 116.43"/><polyline class="cls-13" points="180.1 114.23 175.94 111.83 171.8 114.23 175.96 116.63 180.1 114.23"/><polyline class="cls-13" points="150.64 91.96 146.48 89.56 142.35 91.96 146.51 94.36 150.64 91.96"/><polyline class="cls-13" points="145.94 89.25 141.78 86.84 137.64 89.25 141.8 91.65 145.94 89.25"/><polyline class="cls-13" points="141.24 86.53 137.07 84.13 132.94 86.53 137.1 88.93 141.24 86.53"/><polyline class="cls-13" points="164.75 100.11 160.59 97.71 156.46 100.11 160.62 102.51 164.75 100.11"/><polyline class="cls-13" points="160.05 97.39 155.89 94.99 151.75 97.39 155.92 99.8 160.05 97.39"/><polyline class="cls-13" points="155.34 94.68 151.19 92.28 147.05 94.68 151.21 97.08 155.34 94.68"/><polyline class="cls-13" points="178.86 108.26 174.7 105.85 170.57 108.26 174.73 110.66 178.86 108.26"/><polyline class="cls-13" points="174.16 105.54 170 103.14 165.86 105.54 170.03 107.94 174.16 105.54"/><polyline class="cls-13" points="169.46 102.83 165.29 100.42 161.16 102.83 165.32 105.23 169.46 102.83"/><polyline class="cls-13" points="188.27 113.69 184.11 111.28 179.97 113.69 184.14 116.09 188.27 113.69"/><polyline class="cls-13" points="183.57 110.97 179.41 108.57 175.27 110.97 179.43 113.37 183.57 110.97"/><polyline class="cls-13" points="152.81 87.95 148.65 85.55 144.51 87.95 148.67 90.36 152.81 87.95"/><polyline class="cls-13" points="148.1 85.23 143.94 82.83 139.81 85.23 143.97 87.64 148.1 85.23"/><polyline class="cls-13" points="143.4 82.52 139.24 80.12 135.1 82.52 139.26 84.92 143.4 82.52"/><polyline class="cls-13" points="138.7 79.81 134.54 77.41 130.41 79.81 134.57 82.21 138.7 79.81"/><polyline class="cls-13" points="136.53 83.81 130 80.04 125.86 82.45 132.39 86.22 136.53 83.81"/><polyline class="cls-13" points="133.09 87.14 125.42 82.71 121.28 85.11 128.95 89.54 133.09 87.14"/><polyline class="cls-13" points="125.96 88.25 120.91 85.33 116.77 87.73 121.82 90.65 125.96 88.25"/><polyline class="cls-13" points="166.92 96.1 162.75 93.7 158.62 96.1 162.78 98.5 166.92 96.1"/><polyline class="cls-13" points="162.21 93.38 158.05 90.98 153.92 93.38 158.08 95.78 162.21 93.38"/><polyline class="cls-13" points="157.51 90.67 153.35 88.27 149.22 90.67 153.38 93.07 157.51 90.67"/><polyline class="cls-13" points="181.03 104.25 176.87 101.84 172.73 104.25 176.89 106.65 181.03 104.25"/><polyline class="cls-13" points="176.32 101.53 172.16 99.13 168.03 101.53 172.19 103.93 176.32 101.53"/><polyline class="cls-13" points="171.62 98.81 167.46 96.41 163.32 98.81 167.49 101.22 171.62 98.81"/><polyline class="cls-13" points="190.43 109.68 186.27 107.27 182.14 109.68 186.3 112.08 190.43 109.68"/><polyline class="cls-13" points="185.73 106.96 181.57 104.56 177.44 106.96 181.6 109.36 185.73 106.96"/><path class="cls-14" d="M156.39,121.46,126.08,104a1.76,1.76,0,0,0-1.61,0l-17.06,9.92c-.45.25-.44.67,0,.93l30.32,17.5a1.76,1.76,0,0,0,1.61,0l17.06-9.91a.5.5,0,0,0,0-.94" transform="translate(0 0)"/><polyline class="cls-13" points="143.53 79.74 139.84 77.61 138.19 78.57 141.88 80.7 143.53 79.74"/><polyline class="cls-13" points="148.16 82.42 144.47 80.29 142.82 81.24 146.51 83.37 148.16 82.42"/><polyline class="cls-13" points="152.79 85.09 149.1 82.96 147.45 83.92 151.14 86.05 152.79 85.09"/><polyline class="cls-13" points="157.42 87.77 153.73 85.63 152.08 86.59 155.78 88.72 157.42 87.77"/><polyline class="cls-13" points="188.1 105.48 184.41 103.35 182.77 104.3 186.46 106.44 188.1 105.48"/><polyline class="cls-13" points="192.73 108.15 189.04 106.02 187.4 106.98 191.09 109.11 192.73 108.15"/><polyline class="cls-13" points="197.36 110.83 193.67 108.69 192.03 109.65 195.72 111.78 197.36 110.83"/><polyline class="cls-13" points="201.99 113.5 198.3 111.37 196.66 112.32 200.35 114.45 201.99 113.5"/></g></g><polygon class="cls-15" points="111.37 165.24 65.72 191.93 0 153.04 45.65 126.36 111.37 165.24"/><polygon class="cls-15" points="149.07 163.6 134.42 172.16 113.33 159.68 127.98 151.12 149.07 163.6"/><polygon class="cls-2" points="75.7 178 18.01 144.47 54.94 123.16 112.63 156.68 75.7 178"/><path class="cls-3" d="M71.05,186.06c0-.17,0-.35,0-.52s0-.11,0-.17,0-.22,0-.33l.06-.37c0-.09,0-.17,0-.26l.06-.24.09-.33.06-.19.12-.38.06-.15a5.49,5.49,0,0,1,.21-.51.14.14,0,0,1,0-.06c.07-.15.14-.3.22-.45a.91.91,0,0,1,.07-.14c.07-.14.14-.28.22-.42l0-.08c.09-.16.19-.32.29-.48l.09-.13.23-.34.13-.17.21-.27a2,2,0,0,1,.19-.22,1.63,1.63,0,0,1,.17-.2c.1-.12.21-.23.31-.33l.2-.2.16-.15.26-.23.16-.13.29-.22.15-.1a4.17,4.17,0,0,1,.44-.29L18,144.48c-.15.08-.3.18-.45.28l-.14.1a3.15,3.15,0,0,0-.29.22l-.16.13-.26.23-.16.15-.1.09-.1.11-.31.33-.1.1-.08.1-.18.22-.12.14-.09.13-.13.18a1.25,1.25,0,0,0-.09.12l-.14.21-.09.13,0,.06-.24.39v0l-.05.08-.16.29a.83.83,0,0,1-.07.13.91.91,0,0,1-.07.14l-.06.12-.15.33,0,.06v0l-.18.42s0,0,0,.07l-.06.16c0,.07-.05.14-.07.21a1,1,0,0,0-.05.16l-.06.19s0,.08,0,.12,0,.14-.05.22l-.06.23s0,.06,0,.09l0,.17c0,.12-.05.25-.06.37a.44.44,0,0,0,0,.1,1.94,1.94,0,0,0,0,.24.88.88,0,0,0,0,.16c0,.18,0,.35,0,.52a4.63,4.63,0,0,0,.21,1.46,3,3,0,0,0,.58,1.06,3.25,3.25,0,0,0,.27.26,2,2,0,0,0,.3.21l57.69,33.53A3.29,3.29,0,0,1,71.05,186.06Z" transform="translate(0 0)"/><path class="cls-4" d="M112.66,167.4,75.73,188.72c-2.58,1.49-4.67.3-4.68-2.67A10.26,10.26,0,0,1,75.7,178l36.93-21.32v1.59l-1.28.74,0,6.23,1.28.57Z" transform="translate(0 0)"/><path class="cls-5" d="M112.65,165.81,75,187.53a3,3,0,0,1-1.4.45c-1,0-1.2-1.21-1.21-1.93a8.89,8.89,0,0,1,4-6.85l35-20.19,0,6.23Z" transform="translate(0 0)"/><path class="cls-2" d="M112.44,165.93,75,187.53a3,3,0,0,1-1.4.45,1.12,1.12,0,0,1-1.08-.9,3.87,3.87,0,0,1-.13-1,8.89,8.89,0,0,1,4-6.85l35-20.19-.2,6.36Z" transform="translate(0 0)"/><path class="cls-6" d="M111.37,165.24,74.32,186.67a3,3,0,0,1-1.41.46,1.29,1.29,0,0,1-.35,0,3.87,3.87,0,0,1-.13-1,8.89,8.89,0,0,1,4-6.85l35-20.19Z" transform="translate(0 0)"/><polygon class="cls-7" points="75.7 162.14 18.01 128.61 54.94 107.29 112.63 140.82 75.7 162.14"/><path class="cls-5" d="M71.05,170.19c0-.17,0-.34,0-.51s0-.11,0-.17,0-.22,0-.33l.06-.38c0-.08,0-.17,0-.25l.06-.24.09-.33.06-.2.12-.37.06-.15c.06-.17.13-.35.21-.52a.17.17,0,0,1,0-.05l.22-.46a.83.83,0,0,1,.07-.13c.07-.15.14-.28.22-.42l0-.09c.09-.16.19-.32.29-.47l.09-.14.23-.33.13-.18.21-.26.19-.23.17-.2.31-.33.2-.2.16-.14.26-.23.16-.14a3.15,3.15,0,0,0,.29-.22l.15-.1c.14-.1.29-.19.44-.28L18,128.61l-.45.28-.14.11a3.15,3.15,0,0,0-.29.22l-.16.13-.26.23-.16.15-.1.09-.1.1c-.11.11-.21.22-.31.34a.94.94,0,0,0-.1.1l-.08.1-.18.22-.12.14-.09.13-.13.17-.09.12-.14.21-.09.14,0,0-.24.4v0a.56.56,0,0,0-.05.08l-.16.28a.91.91,0,0,1-.07.14l-.07.14-.06.12-.15.33,0,.06h0l-.18.42,0,.08-.06.15-.07.21a1.09,1.09,0,0,0-.05.17l-.06.19s0,.08,0,.12,0,.14-.05.21l-.06.24s0,.06,0,.08l0,.18c0,.12-.05.24-.06.37a.36.36,0,0,0,0,.1,2,2,0,0,0,0,.23,1,1,0,0,0,0,.17c0,.17,0,.34,0,.51a4.65,4.65,0,0,0,.21,1.47,3,3,0,0,0,.58,1.06l.27.26a3.21,3.21,0,0,0,.3.21l57.69,33.52A3.28,3.28,0,0,1,71.05,170.19Z" transform="translate(0 0)"/><path class="cls-8" d="M112.66,151.54,75.73,172.86c-2.58,1.48-4.67.29-4.68-2.67a10.26,10.26,0,0,1,4.65-8.05l36.93-21.32v1.59l-1.28.74,0,6.23,1.28.57Z" transform="translate(0 0)"/><path class="cls-5" d="M112.65,150,75,171.66a2.94,2.94,0,0,1-1.4.46c-1,0-1.2-1.21-1.21-1.93a8.92,8.92,0,0,1,4-6.86l35-20.18,0,6.23Z" transform="translate(0 0)"/><path class="cls-5" d="M112.44,150.07,75,171.66a2.94,2.94,0,0,1-1.4.46,1.13,1.13,0,0,1-1.08-.9,3.87,3.87,0,0,1-.13-1,8.92,8.92,0,0,1,4-6.86l35-20.18-.2,6.36Z" transform="translate(0 0)"/><path class="cls-6" d="M111.37,149.38,74.32,170.81a3,3,0,0,1-1.41.46,1.29,1.29,0,0,1-.35-.05,3.87,3.87,0,0,1-.13-1,8.92,8.92,0,0,1,4-6.86l35-20.18Z" transform="translate(0 0)"/><polygon class="cls-7" points="225.93 158.98 225.93 159.76 215.42 165.86 215.42 165.08 225.93 158.98"/><polygon class="cls-16" points="215.42 165.08 215.42 165.86 199.05 156.41 199.05 155.63 215.42 165.08"/><polygon class="cls-5" points="225.93 158.98 215.42 165.08 199.05 155.63 209.56 149.52 225.93 158.98"/><polygon class="cls-15" points="229.55 169.96 173.17 202.73 131.06 178.42 187.45 145.66 229.55 169.96"/><polygon class="cls-8" points="236.98 167.62 236.97 169.96 180.59 202.73 180.59 200.39 236.98 167.62"/><polygon class="cls-7" points="180.59 200.39 180.59 202.73 138.49 178.42 138.49 176.08 180.59 200.39"/><polygon class="cls-9" points="236.98 167.62 180.59 200.39 138.49 176.08 194.88 143.31 236.98 167.62"/><polygon class="cls-7" points="225.93 156.16 225.93 156.94 218.52 161.24 218.52 160.46 225.93 156.16"/><polygon class="cls-7" points="218.52 160.46 218.52 161.24 202.15 151.79 202.15 151.01 218.52 160.46"/><polygon class="cls-5" points="225.93 156.16 218.52 160.46 202.15 151.01 209.56 146.7 225.93 156.16"/><polygon class="cls-8" points="220.78 151.99 220.78 152.77 219.03 153.79 219.03 153.01 220.78 151.99"/><polygon class="cls-7" points="219.03 153.01 219.03 153.79 212.49 150.02 212.49 149.24 219.03 153.01"/><polygon class="cls-9" points="220.78 151.99 219.03 153.01 212.49 149.24 214.25 148.22 220.78 151.99"/><g class="cls-11"><g class="cls-17"><polyline class="cls-2" points="170.69 175.35 162.69 170.73 154.74 175.35 162.74 179.97 170.69 175.35"/><path class="cls-2" d="M190.26,158.82l6.28-.53a1.37,1.37,0,0,1,.81.15.55.55,0,0,1,.27.32c.09.3-.27.58-.8.63l-7.28.62a1.61,1.61,0,0,1-.74-.11l-.08-.05a.5.5,0,0,1-.28-.35s0-.28-.1-.66-.14-.85-.21-1.22c0-.22-.1-.42-.13-.5s-.08-.44.21-.6a1.46,1.46,0,0,1,1.35,0,.72.72,0,0,1,.23.19l0,.09.06.14c0,.1.06.2.09.33s.12.58.17.89l.11.66m9.39-.31-8-4.61-8,4.62,8,4.62,8-4.63" transform="translate(0 0)"/><path class="cls-9" d="M197.35,158.44a1.37,1.37,0,0,0-.81-.15l-6.28.53-.11-.66c-.05-.31-.11-.63-.17-.89s-.06-.23-.09-.33l-.06-.14,0-.09a.72.72,0,0,0-.23-.19,1.46,1.46,0,0,0-1.35,0c-.29.16-.36.4-.21.6s.08.28.13.5c.07.37.15.85.21,1.22s.1.66.1.66a.5.5,0,0,0,.28.35l.08.05a1.61,1.61,0,0,0,.74.11l7.28-.62c.53,0,.89-.33.8-.63a.55.55,0,0,0-.27-.32" transform="translate(0 0)"/><path class="cls-2" d="M178.05,166.43h2.49a1.37,1.37,0,0,1,.68.16.5.5,0,0,1,.28.4c0,.3-.43.55-1,.55h-2.48V169c0,.31-.43.56-1,.56a1.35,1.35,0,0,1-.67-.16.49.49,0,0,1-.29-.4v-1.44h-2.48a1.37,1.37,0,0,1-.68-.16.49.49,0,0,1-.28-.39c0-.31.42-.56,1-.56h2.49V165c0-.31.42-.55,1-.55a1.35,1.35,0,0,1,.67.16.48.48,0,0,1,.29.39v1.44m7.12.5-8-4.62-7.95,4.62,8,4.62,7.95-4.62" transform="translate(0 0)"/><path class="cls-9" d="M178.06,167.54h-1.92V169a.49.49,0,0,0,.29.4,1.35,1.35,0,0,0,.67.16c.53,0,1-.25,1-.56v-1.44m-.3-2.94a1.35,1.35,0,0,0-.67-.16c-.54,0-1,.24-1,.55v1.44h1.91V165a.48.48,0,0,0-.29-.39" transform="translate(0 0)"/><path class="cls-9" d="M181.22,166.59a1.37,1.37,0,0,0-.68-.16h-6.89c-.53,0-1,.25-1,.56a.49.49,0,0,0,.28.39,1.37,1.37,0,0,0,.68.16h6.88c.53,0,1-.25,1-.55a.5.5,0,0,0-.28-.4" transform="translate(0 0)"/><polyline class="cls-14" points="220.41 170.85 204.24 161.52 203.36 162.03 219.53 171.36 220.41 170.85"/><polyline class="cls-14" points="207.07 165.18 202.49 162.54 201.61 163.04 206.19 165.69 207.07 165.18"/><polyline class="cls-14" points="218.66 171.87 208.08 165.76 207.2 166.27 217.78 172.38 218.66 171.87"/><polyline class="cls-14" points="210.57 170.09 200 163.98 199.12 164.49 209.69 170.6 210.57 170.09"/><polyline class="cls-14" points="214.45 174.32 198.28 164.98 197.41 165.49 213.58 174.82 214.45 174.32"/><polyline class="cls-14" points="206.22 179.1 190.05 169.76 189.18 170.27 205.35 179.6 206.22 179.1"/><polyline class="cls-14" points="192.88 173.43 188.3 170.78 187.42 171.29 192 173.94 192.88 173.43"/><polyline class="cls-14" points="204.47 180.12 193.89 174.01 193.01 174.52 203.59 180.63 204.47 180.12"/><polyline class="cls-14" points="196.39 178.33 185.81 172.23 184.94 172.73 195.51 178.84 196.39 178.33"/><polyline class="cls-14" points="200.26 182.56 184.09 173.22 183.22 173.73 199.39 183.07 200.26 182.56"/><polyline class="cls-14" points="192.06 187.35 175.88 178.02 175.01 178.53 191.18 187.86 192.06 187.35"/><polyline class="cls-14" points="178.72 181.68 174.13 179.03 173.25 179.54 177.84 182.19 178.72 181.68"/><polyline class="cls-14" points="190.31 188.37 179.72 182.26 178.84 182.77 189.42 188.88 190.31 188.37"/><polyline class="cls-14" points="182.22 186.59 171.64 180.48 170.77 180.99 181.34 187.09 182.22 186.59"/><polyline class="cls-14" points="186.1 190.81 169.93 181.48 169.05 181.99 185.22 191.32 186.1 190.81"/></g></g><polyline class="cls-18" points="67.9 107.86 48.33 118.65 48.33 127.64"/><path class="cls-7" d="M49.91,127.32a1.58,1.58,0,1,1-1.58-1.58A1.58,1.58,0,0,1,49.91,127.32Z" transform="translate(0 0)"/><path class="cls-7" d="M47,128.13l-.48,7h1.83v-7.46A10,10,0,0,0,47,128.13Z" transform="translate(0 0)"/><path class="cls-7" d="M49.68,128.13l.48,7H48.33v-7.46A10.53,10.53,0,0,1,49.68,128.13Z" transform="translate(0 0)"/><polygon class="cls-19" points="135.91 168.3 151.17 159.44 151.16 162.43 135.9 171.3 135.91 168.3"/><polygon class="cls-20" points="122.11 160.34 137.37 151.47 151.17 159.44 135.91 168.3 122.11 160.34"/><polygon class="cls-21" points="135.91 168.3 135.9 171.3 122.11 163.34 122.11 160.34 135.91 168.3"/><polygon class="cls-8" points="135.91 164.12 151.17 155.26 151.16 158.25 135.9 167.12 135.91 164.12"/><polygon class="cls-7" points="122.11 156.16 137.37 147.29 151.17 155.26 135.91 164.12 122.11 156.16"/><polygon class="cls-5" points="135.91 164.12 135.9 167.12 122.11 159.16 122.11 156.16 135.91 164.12"/><polygon class="cls-4" points="135.91 159.95 151.17 151.08 151.16 154.08 135.9 162.94 135.91 159.95"/><polygon class="cls-2" points="122.11 151.98 137.37 143.12 151.17 151.08 135.91 159.95 122.11 151.98"/><polygon class="cls-3" points="135.91 159.95 135.9 162.94 122.11 154.98 122.11 151.98 135.91 159.95"/><polygon class="cls-21" points="170.22 33.84 172.64 32.43 172.52 76.14 170.09 77.55 170.22 33.84"/><polygon class="cls-22" points="147.75 20.87 150.17 19.46 172.64 32.43 170.22 33.84 147.75 20.87"/><polygon class="cls-20" points="170.22 33.84 170.09 77.55 147.62 64.58 147.75 20.87 170.22 33.84"/><polygon class="cls-23" points="210.4 65.42 213.1 63.85 213.03 88.17 210.33 89.73 210.4 65.42"/><polygon class="cls-24" points="185.38 50.97 188.08 49.41 213.1 63.85 210.4 65.42 185.38 50.97"/><polygon class="cls-13" points="210.4 65.42 210.33 89.73 185.31 75.29 185.38 50.97 210.4 65.42"/><g class="cls-11"><g class="cls-25"><polyline class="cls-13" points="166.66 38.79 149.67 28.99 149.67 30.14 166.65 39.95 166.66 38.79"/><polyline class="cls-13" points="157.57 35.92 149.67 31.36 149.66 32.51 157.57 37.08 157.57 35.92"/><polyline class="cls-13" points="166.65 41.17 158.44 36.42 158.43 37.58 166.65 42.32 166.65 41.17"/><polyline class="cls-13" points="162.36 41.06 149.66 33.73 149.66 34.88 162.35 42.21 162.36 41.06"/><polyline class="cls-13" points="166.64 43.54 163 41.43 162.99 42.58 166.64 44.69 166.64 43.54"/></g></g><g class="cls-11"><g class="cls-26"><polyline class="cls-13" points="167.05 50.59 150.07 40.79 150.06 41.94 167.05 51.75 167.05 50.59"/><polyline class="cls-13" points="157.96 47.72 150.06 43.16 150.06 44.31 157.96 48.88 157.96 47.72"/><polyline class="cls-13" points="167.04 52.97 158.83 48.23 158.83 49.38 167.04 54.12 167.04 52.97"/><polyline class="cls-13" points="162.75 52.86 150.05 45.53 150.05 46.69 162.75 54.02 162.75 52.86"/><polyline class="cls-13" points="167.04 55.34 163.4 53.24 163.39 54.39 167.03 56.49 167.04 55.34"/></g></g><g class="cls-11"><g class="cls-27"><polyline class="cls-28" points="208.2 71.81 187.07 59.61 187.07 61.04 208.2 73.24 208.2 71.81"/><polyline class="cls-29" points="196.9 68.24 187.06 62.56 187.06 63.99 196.89 69.67 196.9 68.24"/><polyline class="cls-30" points="208.19 74.76 197.97 68.86 197.97 70.3 208.19 76.19 208.19 74.76"/><polyline class="cls-31" points="202.85 74.64 187.05 65.51 187.05 66.95 202.85 76.07 202.85 74.64"/><polyline class="cls-32" points="208.19 77.71 203.66 75.1 203.65 76.53 208.18 79.15 208.19 77.71"/></g></g><g class="cls-11"><g class="cls-33"><polyline class="cls-13" points="167.44 62.4 150.46 52.59 150.46 53.74 167.44 63.55 167.44 62.4"/><polyline class="cls-13" points="158.36 59.52 150.45 54.96 150.45 56.11 158.35 60.68 158.36 59.52"/><polyline class="cls-13" points="167.44 64.77 159.22 60.02 159.22 61.18 167.43 65.92 167.44 64.77"/><polyline class="cls-13" points="163.14 64.66 150.45 57.33 150.44 58.48 163.14 65.82 163.14 64.66"/><polyline class="cls-13" points="167.43 67.14 163.79 65.04 163.79 66.19 167.43 68.29 167.43 67.14"/></g></g><path class="cls-15" d="M111.15,69.69a9,9,0,0,0-6.32,0c-1.74.75-1.73,2,0,2.73a9,9,0,0,0,6.32,0c1.74-.75,1.73-2,0-2.73" transform="translate(0 0)"/><path class="cls-34" d="M81,126.24c-9.52-4.11-24.92-4.11-34.38,0s-9.4,10.78.12,14.88,24.9,4.12,34.37,0,9.4-10.78-.11-14.88" transform="translate(0 0)"/><path class="cls-5" d="M112.47,70.54c0,2.27-5,2.27-5,0V48.13c0,1.39,5,1.39,5,0Z" transform="translate(0 0)"/><path class="cls-7" d="M112.47,48.22c0,.53-1.12,1-2.5,1s-2.5-.42-2.5-1,1.12-.95,2.5-.95S112.47,47.7,112.47,48.22Z" transform="translate(0 0)"/><path class="cls-5" d="M111.43,48.13c0,.68-2.92.68-2.92,0v-7.6h2.92Z" transform="translate(0 0)"/><path class="cls-35" d="M106.88,40.93l3.37-2,.47.24-3.37,2-.47-.24" transform="translate(0 0)"/><path class="cls-36" d="M107.35,41.17l3.37-2,.47.22-3.38,2-.46-.22" transform="translate(0 0)"/><path class="cls-37" d="M107.81,41.39l3.38-2,.46.19-3.38,2-.46-.19" transform="translate(0 0)"/><path class="cls-38" d="M108.27,41.58l3.38-2,.46.18-3.38,2-.46-.18" transform="translate(0 0)"/><path class="cls-39" d="M108.73,41.76l3.38-2,.46.15-3.38,2-.46-.15" transform="translate(0 0)"/><path class="cls-40" d="M109.19,41.91l3.38-2,.47.13-3.37,2-.48-.13" transform="translate(0 0)"/><path class="cls-41" d="M109.67,42l3.37-2,.48.1-3.38,2-.47-.1" transform="translate(0 0)"/><path class="cls-42" d="M110.14,42.14l3.38-2,.5.09-3.38,2-.5-.09" transform="translate(0 0)"/><path class="cls-43" d="M110.64,42.23l3.38-2,.51,0-3.38,2-.51-.05" transform="translate(0 0)"/><path class="cls-44" d="M111.15,42.28l3.38-2,.54,0-3.37,2-.55,0" transform="translate(0 0)"/><path class="cls-45" d="M111.7,42.3l3.37-2,.6,0-3.38,2a5.68,5.68,0,0,1-.59,0" transform="translate(0 0)"/><path class="cls-46" d="M112.29,42.27l3.38-2a6.53,6.53,0,0,0,.66-.1l-3.37,2a4.92,4.92,0,0,1-.67.1" transform="translate(0 0)"/><path class="cls-47" d="M113,42.17l3.37-2a6.87,6.87,0,0,0,.81-.22l-3.38,2a5.24,5.24,0,0,1-.8.22" transform="translate(0 0)"/><path class="cls-48" d="M113.76,42l3.38-2a5.64,5.64,0,0,0,.93-.43l-3.37,2a6.16,6.16,0,0,1-.94.43" transform="translate(0 0)"/><path class="cls-48" d="M98.4,13.46l3.37-2a5.79,5.79,0,0,0-2,1.95l-3.38,2a5.91,5.91,0,0,1,2-1.95" transform="translate(0 0)"/><path class="cls-47" d="M96.4,15.41l3.38-2a6.69,6.69,0,0,0-.44.79L96,16.2a6.63,6.63,0,0,1,.43-.79" transform="translate(0 0)"/><path class="cls-46" d="M96,16.2l3.37-2c-.1.21-.19.43-.28.66l-3.37,2A6.54,6.54,0,0,1,96,16.2" transform="translate(0 0)"/><path class="cls-45" d="M95.69,16.86l3.37-2c-.07.19-.14.39-.2.6l-3.37,2c.06-.21.13-.41.2-.6" transform="translate(0 0)"/><path class="cls-44" d="M95.49,17.46l3.37-2-.15.59-3.37,2a5.66,5.66,0,0,1,.15-.59" transform="translate(0 0)"/><path class="cls-43" d="M95.34,18.05l3.37-2c0,.18-.08.37-.11.56l-3.38,2c0-.19.07-.38.12-.56" transform="translate(0 0)"/><path class="cls-42" d="M95.22,18.61l3.38-2c0,.18-.06.36-.08.55l-3.38,2c0-.19,0-.37.08-.55" transform="translate(0 0)"/><path class="cls-49" d="M96.15,27.21l3.38-2c.06.19.13.39.2.59l-3.37,2c-.08-.2-.14-.39-.21-.59" transform="translate(0 0)"/><path class="cls-50" d="M96.36,27.8l3.37-2,.21.56-3.37,2c-.08-.19-.15-.37-.21-.56" transform="translate(0 0)"/><path class="cls-51" d="M96.57,28.36l3.37-2,.23.56-3.38,2c-.08-.18-.15-.37-.22-.56" transform="translate(0 0)"/><path class="cls-2" d="M96.79,28.92l3.38-2c.07.18.15.37.23.55l-3.37,2-.24-.55" transform="translate(0 0)"/><path class="cls-52" d="M97,29.47l3.37-2,.26.56-3.38,2c-.08-.18-.17-.37-.25-.56" transform="translate(0 0)"/><path class="cls-53" d="M97.28,30l3.38-2c.09.2.19.41.29.61l-3.37,2-.3-.61" transform="translate(0 0)"/><path class="cls-54" d="M97.58,30.64l3.37-2,.36.69-3.38,2c-.12-.23-.24-.46-.35-.69" transform="translate(0 0)"/><path class="cls-52" d="M101.05,36l3.37-2,.45.52-3.38,2c-.15-.17-.3-.34-.44-.52" transform="translate(0 0)"/><path class="cls-55" d="M103.4,38.44l3.38-2c.17.16.34.3.51.45l-3.38,2-.51-.44" transform="translate(0 0)"/><path class="cls-56" d="M103.91,38.88l3.38-2,.51.42-3.37,2-.52-.42" transform="translate(0 0)"/><path class="cls-7" d="M109.89,38.76a19.35,19.35,0,0,1-4.19-3.33l-.06-.06c-.42-.44-.83-.89-1.23-1.37v0c-.32-.39-.63-.78-.94-1.19l0,0c-.26-.36-.52-.73-.77-1.11s-.31-.5-.47-.75-.26-.41-.38-.62l-.17-.3A26.27,26.27,0,0,1,98.9,23h0a20.34,20.34,0,0,1-.43-2.73.31.31,0,0,0,0-.1c0-.44,0-.88,0-1.31s0-.86.06-1.26a.41.41,0,0,0,0-.11c.3-2.9,1.5-5,3.29-6l-3.37,2c-1.73,1-2.9,3-3.25,5.69h0l0,.31a.41.41,0,0,0,0,.11c0,.05,0,.09,0,.13l0,.54c0,.19,0,.37,0,.56v.55l0,.55c0,.06,0,.12,0,.17v.09c0,.1,0,.2,0,.3s0,.38.07.56,0,.26,0,.39v0l0,.17c0,.19.06.39.1.58l.12.6c0,.2.09.4.14.61s.11.4.16.61l.18.6c.06.2.12.4.19.6h0a27.66,27.66,0,0,0,1.78,4.13h0l.34.59c0,.1.11.2.17.3l.06.13c.1.17.21.33.32.49s.3.51.47.75l.07.13c.23.33.46.66.7,1l0,0h0l.51.67.42.51,0,0h0c.15.18.31.34.46.52h0l.45.5.35.36,0,0,.08.1c.16.16.32.32.49.47l.5.48h0c.34.3.68.59,1,.86h0l.5.38.5.36.27.18,0,0,.19.12.48.3.12.06.36.21h0c3,1.64,5.8,1.77,7.81.6l3.37-2C116,40.77,113.08,40.61,109.89,38.76Z" transform="translate(0 0)"/><path class="cls-48" d="M97.44,11.81l3.37-2a5.58,5.58,0,0,1,1-.49l-3.38,2a5.8,5.8,0,0,0-1,.49" transform="translate(0 0)"/><path class="cls-47" d="M98.48,11.32l3.38-2a8.5,8.5,0,0,1,.9-.25l-3.38,2a6.61,6.61,0,0,0-.9.24" transform="translate(0 0)"/><path class="cls-46" d="M99.38,11.08l3.38-2c.24,0,.49-.08.74-.1l-3.37,2a6.16,6.16,0,0,0-.75.11" transform="translate(0 0)"/><path class="cls-57" d="M108.36,13.86l3.38-2c.19.14.38.28.56.43l-3.37,2-.57-.43" transform="translate(0 0)"/><path class="cls-56" d="M108.93,14.29l3.37-2c.19.15.39.3.57.46l-3.37,2-.57-.47" transform="translate(0 0)"/><path class="cls-55" d="M109.5,14.76l3.37-2,.58.5-3.38,2-.57-.49" transform="translate(0 0)"/><path class="cls-49" d="M110.07,15.25l3.38-2,.56.53-3.37,2-.57-.53" transform="translate(0 0)"/><path class="cls-50" d="M110.64,15.78l3.37-2,.54.53-3.37,2-.54-.54" transform="translate(0 0)"/><path class="cls-51" d="M111.18,16.32l3.37-2c.18.19.36.37.53.56l-3.37,2-.53-.55" transform="translate(0 0)"/><path class="cls-2" d="M111.71,16.87l3.37-2c.17.18.34.36.5.55l-3.37,2-.5-.55" transform="translate(0 0)"/><path class="cls-52" d="M112.21,17.42l3.37-2,.5.58-3.38,2-.49-.59" transform="translate(0 0)"/><path class="cls-53" d="M112.7,18l3.38-2c.17.2.33.41.49.62l-3.37,2c-.16-.21-.33-.41-.5-.61" transform="translate(0 0)"/><path class="cls-54" d="M113.2,18.62l3.37-2c.2.24.39.49.58.75l-3.38,2q-.28-.39-.57-.75" transform="translate(0 0)"/><path class="cls-58" d="M113.77,19.37l3.38-2c.27.37.55.76.81,1.16l-3.38,2c-.26-.4-.53-.78-.81-1.16" transform="translate(0 0)"/><path class="cls-59" d="M114.58,20.53l3.38-2c.34.5.66,1,1,1.53l-3.38,2c-.31-.52-.63-1-1-1.53" transform="translate(0 0)"/><path class="cls-58" d="M115.55,22.06l3.38-2c.21.38.43.75.63,1.14l-3.37,2c-.21-.38-.42-.76-.64-1.14" transform="translate(0 0)"/><path class="cls-54" d="M116.19,23.2l3.37-2c.14.25.27.51.4.77l-3.38,2c-.12-.26-.26-.52-.39-.77" transform="translate(0 0)"/><path class="cls-53" d="M116.58,24,120,22l.33.68-3.38,2c-.1-.23-.21-.45-.33-.68" transform="translate(0 0)"/><path class="cls-52" d="M116.91,24.65l3.38-2c.1.21.19.41.28.62l-3.37,2c-.09-.21-.19-.42-.29-.63" transform="translate(0 0)"/><path class="cls-2" d="M117.2,25.28l3.37-2,.27.62-3.38,2c-.08-.2-.17-.41-.26-.61" transform="translate(0 0)"/><path class="cls-51" d="M117.46,25.89l3.38-2c.09.21.17.42.25.63l-3.37,2-.26-.63" transform="translate(0 0)"/><path class="cls-50" d="M117.72,26.52l3.37-2,.24.63-3.38,2c-.07-.21-.15-.42-.23-.63" transform="translate(0 0)"/><path class="cls-49" d="M118,27.15l3.38-2,.23.66-3.38,2c-.07-.22-.15-.44-.23-.66" transform="translate(0 0)"/><path class="cls-55" d="M118.18,27.81l3.38-2,.21.66-3.38,2q-.09-.33-.21-.66" transform="translate(0 0)"/><path class="cls-5" d="M122.79,32.38c0-.2,0-.41,0-.62l0-.28v-.13c0-.07,0-.14,0-.21s0-.42-.07-.63-.06-.43-.1-.64-.07-.43-.11-.65-.09-.45-.13-.67-.11-.45-.16-.68l-.18-.68c-.06-.23-.13-.45-.2-.68h0a29.54,29.54,0,0,0-10-14.62h0l-.56-.4-.16-.11-.15-.09-.23-.16-.54-.33-.13-.07-.41-.23c-.17-.1-.35-.19-.52-.27l-.34-.16-.09,0-.09,0L108,9.77l-.52-.19-.09,0-.08,0L107,9.41l-.53-.15-.26,0-.11,0-.16,0-.56-.1L105,9h-.11l-.11,0-.61,0-.26,0h-.41l0,0a6.43,6.43,0,0,0-2.66.82l-3.37,2a6.5,6.5,0,0,1,2.89-.85h.2a8.06,8.06,0,0,1,1,0h.12a10.66,10.66,0,0,1,1.07.16l.1,0a10.2,10.2,0,0,1,1.14.31l.08,0c.4.14.81.3,1.22.49l.08,0a14,14,0,0,1,1.27.66c.31.18.62.37.92.57l.15.09c4.92,3.31,9.06,9.38,10.84,15.46v0a23.22,23.22,0,0,1,.86,4.46.53.53,0,0,0,0,.13c0,.5.06,1,.06,1.48s0,1-.07,1.41c0,0,0,.08,0,.13,0,.4-.1.79-.17,1.16v0a9.89,9.89,0,0,1-.51,1.82v0a7.84,7.84,0,0,1-.32.72,4.68,4.68,0,0,1-.3.54,6.93,6.93,0,0,1-1.15,1.5h0a5.27,5.27,0,0,1-.57.49,6.9,6.9,0,0,1-.63.42l3.37-2a6.56,6.56,0,0,0,.87-.62.69.69,0,0,1,.13-.11A7.3,7.3,0,0,0,121.28,39a8.24,8.24,0,0,0,.48-.88,6.07,6.07,0,0,0,.31-.74c.08-.21.16-.44.23-.67s.12-.43.17-.66a5.86,5.86,0,0,0,.12-.63c0-.2.07-.4.1-.61l0-.35a.49.49,0,0,0,0-.12.77.77,0,0,0,0-.15c0-.2,0-.4,0-.6s0-.41,0-.62v0C122.8,32.77,122.8,32.58,122.79,32.38Z" transform="translate(0 0)"/><path class="cls-60" d="M106.59,12.7c7.1,4.09,12.86,14.06,12.84,22.22s-5.83,11.46-12.92,7.36S93.66,28.22,93.68,20.06,99.49,8.6,106.59,12.7Zm-.07,28c6.34,3.67,11.52.71,11.54-6.58s-5.12-16.22-11.47-19.88S95.06,13.55,95,20.84s5.12,16.21,11.48,19.88" transform="translate(0 0)"/><path class="cls-20" d="M89.19,130.19c0,16-45.18,16-45.18,0V106.06H89.19Z" transform="translate(0 0)"/><polygon class="cls-19" points="101.72 108.91 101.71 111.23 66.59 131.64 66.6 129.32 101.72 108.91"/><polygon class="cls-21" points="66.6 129.32 66.59 131.64 31.24 111.23 31.25 108.91 66.6 129.32"/><polygon class="cls-22" points="101.72 108.91 66.6 129.32 31.25 108.91 66.37 88.5 101.72 108.91"/><path class="cls-5" d="M188.4,129.2a4.9,4.9,0,0,0,0,2.06c.28.77,1.56.17,1.56.17l-.07-2.46Z" transform="translate(0 0)"/><path class="cls-61" d="M190.18,78.91l.17-.67s-3-.94-3-.86-.17,2-.17,2l1.92.4Z" transform="translate(0 0)"/><polygon class="cls-61" points="198.42 74.46 197.41 70.82 198.35 70.39 199.92 73.76 198.42 74.46"/><path class="cls-61" d="M198.35,70.39s-.08-.33,0-.48a2.38,2.38,0,0,0,0-1.27,2.07,2.07,0,0,0-.63-.86,2.28,2.28,0,0,0-.93-.53.21.21,0,0,0-.11,0,.17.17,0,0,0-.12.1.49.49,0,0,0,0,.17,1.19,1.19,0,0,0,.43.65c.18.17.38.42.28.68a.5.5,0,0,1-.2.25l0,0a.08.08,0,0,1-.06,0,1.63,1.63,0,0,1-.39-.44.1.1,0,0,0,0-.05.08.08,0,0,0-.1,0c-.14.12,0,.34,0,.49a2.75,2.75,0,0,0,.39.63c.07.09.15.18.22.28a3.13,3.13,0,0,1,.15.32l.23.48Z" transform="translate(0 0)"/><path class="cls-5" d="M184.06,96.94c.25.74,0,15.9,0,15.9l-7.94,9.91,1.1,2.32L188,116.63l1.71-19.69Z" transform="translate(0 0)"/><path class="cls-7" d="M186.14,98.81l.86,29.66a.12.12,0,0,0,0,.09c.21.28,1.58,1.84,4.66,0a.18.18,0,0,0,.08-.14l1.46-29.62Z" transform="translate(0 0)"/><path class="cls-20" d="M182.9,82.88V96.94s2.33,4.28,11.07,2.88l.43-13.33s10.45-4.1,8.62-7.71l-2.88-5.38-2.07,1,1,4.4s-4.55,3.86-6,3.55a5,5,0,0,1-2.31-1.48,2,2,0,0,1-.58-1.44v-.5l-3.12-.62-.92,1.23s-2.67-1-3.85.3Z" transform="translate(0 0)"/><path class="cls-61" d="M193,73.6a7,7,0,0,1-.28,3.41c-.62,1.89-3.68,1.25-3.68,1.25l.69-3.54Z" transform="translate(0 0)"/><path class="cls-62" d="M186.14,77.87a5.11,5.11,0,0,0,3.22.88,7.78,7.78,0,0,0,.41-2.39s2.59.12,3.34-2a2.7,2.7,0,0,0-.45-2.49c-.78-1-2.33-2.27-5-1.2a3.46,3.46,0,0,0-2.18,2.69A9.61,9.61,0,0,0,186.14,77.87Z" transform="translate(0 0)"/><path class="cls-20" d="M182.29,79.82,178,86.48a3,3,0,0,0,1,4.26,9,9,0,0,0,5.39,1.05l.65-1.34a19.94,19.94,0,0,1-3.62-1.76l2.31-5.22Z" transform="translate(0 0)"/><path class="cls-5" d="M190,131.43l2.68-1.28s.32-1.15-2.95,0Z" transform="translate(0 0)"/><path class="cls-5" d="M177,123a5.75,5.75,0,0,0-2.3.92c-.73.65.51,1.82.51,1.82l2.54-1.66Z" transform="translate(0 0)"/><path class="cls-5" d="M175.18,125.7l2.62,2.41s1.42-.15-1.31-3.29Z" transform="translate(0 0)"/></svg>