<svg id="Layer_1" data-name="Layer 1" xmlns="http://www.w3.org/2000/svg" viewBox="0 0 127.46 143.39"><defs><style>.cls-1{fill:#aae5d7;}.cls-2{fill:#84af98;}.cls-3{fill:#58666b;}.cls-4{fill:#497284;}.cls-5{fill:#2f4957;}.cls-6{fill:#798c91;}.cls-7{fill:#4e5b5e;}.cls-8{fill:#c6998b;}.cls-9{fill:#e1ae9c;}.cls-10{fill:#29150f;}.cls-11{fill:#593a2e;}.cls-12{fill:#333;}.cls-13{fill:#fff;}.cls-14,.cls-15{fill:none;stroke-linecap:round;stroke-linejoin:round;stroke-width:0.75px;}.cls-14{stroke:#29150f;}.cls-15{stroke:#c55b4d;}.cls-16{fill:#f9c0af;}.cls-17{fill:#d8c5bf;}.cls-18{fill:#837984;}.cls-19{fill:#ccb3ac;}.cls-20{fill:#aeb7b1;}.cls-21{fill:#d5e2da;}.cls-22{fill:#f3fff7;}.cls-23{fill:#434e51;}.cls-24{fill:#99443d;}</style></defs><path class="cls-1" d="M35.37,4a34.66,34.66,0,0,0-4.06,2.36C12,19.42,1.92,44.16.22,66.67q-.27,3.48-.21,7c.43,27.06,16.58,53.9,41.37,64.77s56.94,3.59,72.84-18.31c7.6-10.47,11.28-24.8,5.88-36.56-7.56-16.44-27.6-21.47-36.95-36.44C75,34.06,81.84,15.45,68.53,5.14,59.2-2.08,45.47-1,35.37,4Z"/><path class="cls-2" d="M127.46,134.26c0,2.67-25.51,4.83-57,4.83s-57-2.16-57-4.83,25.5-4.82,57-4.82S127.46,131.6,127.46,134.26Z"/><polygon class="cls-3" points="36.09 131.86 33.96 131.86 33.96 92.51 29.11 71.65 31.25 71.65 36.09 92.4 36.09 131.86"/><polygon class="cls-3" points="57.37 130.82 55.23 130.82 55.23 92.15 50.39 71.65 52.53 71.65 57.37 92.05 57.37 130.82"/><rect class="cls-3" x="50.39" y="95.03" width="2.14" height="36.84"/><rect class="cls-3" x="75.88" y="95.03" width="2.14" height="36.84"/><path class="cls-4" d="M47.19,77.28H28.11A8.38,8.38,0,0,1,20.49,71L15.92,51.4c-.78-3.3,1.25-5.95,4.51-5.95H38.8a8.31,8.31,0,0,1,7.52,5.95L51.62,71C52.56,74.43,50.59,77.28,47.19,77.28Z"/><path class="cls-5" d="M47.5,77.28H29.7c-3.17,0-6.36-2.85-7.12-6.33L18.31,51.4c-.72-3.3,1.17-5.95,4.22-5.95H39.67c3,0,6.18,2.65,7,5.95L51.63,71C52.52,74.43,50.67,77.28,47.5,77.28Z"/><path class="cls-4" d="M81.06,96.4H34.48a2.73,2.73,0,0,1-2.73-2.73h0A2.72,2.72,0,0,1,34.48,91H81.06a2.72,2.72,0,0,1,2.73,2.72h0A2.73,2.73,0,0,1,81.06,96.4Z"/><path class="cls-5" d="M81.06,96.4H38.3a2.73,2.73,0,0,1-2.73-2.73h0A2.72,2.72,0,0,1,38.3,91H81.06a2.72,2.72,0,0,1,2.73,2.72h0A2.73,2.73,0,0,1,81.06,96.4Z"/><path class="cls-3" d="M37.6,33.15s-8.71-4.27-9.71,4.52c-.7,6.08,2,29.35,6,30.48s5.95-9.77,5.95-9.77Z"/><path class="cls-6" d="M40.66,55.75s-8-4.07-11.55,2.79c-.27,2.61.89,6.12,2.79,7.39,0,0,6-3.32,8.34-3.32Z"/><path class="cls-7" d="M56.39,40.71l.79-6.82s3.26-1.23,5.64.7,9.41,20,9.41,20l-8.36,8.29Z"/><path class="cls-6" d="M60.75,60.24c0-.31,3.74-10.69,12.89-8.84s5.72,6.39,5.72,6.39l-15,8.14Z"/><path class="cls-3" d="M41.49,33.67s-6.7-1.54-10,.55c-1.48.94,2.5,9.15,4.65,18.37a196.31,196.31,0,0,1,3.7,23.82l27.79-4.19s-6.14-22.76-6.37-31-2.15-7.84-7.43-6.59S41.49,33.67,41.49,33.67Z"/><path class="cls-8" d="M41,33.12s4.34,11.58,9.18,10.4,5.37-11.78,5.37-11.78Z"/><path class="cls-8" d="M62.25,26c.69,1.32-.39,3.25-2.41,4.31s-4.21.84-4.91-.48.39-3.25,2.41-4.31S61.56,24.67,62.25,26Z"/><path class="cls-9" d="M58.75,26.61c.47,7.48-3.31,13.72-9.14,14.08s-11.51-5.28-12-12.76,3.94-13.3,9.71-14.21C58.79,11.92,58.28,19.12,58.75,26.61Z"/><path class="cls-10" d="M61.1,20.08c-.82.71-1.46,1.21-1.46,1.21l-.85,6.41c-.29-2.95-.57-5.84-1.26-7.19,0,0-14.29.83-15.5.94,0,0-.62,5.05-2.29,7.43H37s-2.59-7.59-2-11.44,2.87-8,4-7.57.59,3.07.59,3.07,1.49-1.25,3.53-2.8h0c3.78-2.86,9.46-6.79,11.18-5.94,2.55,1.26-.17,5.15-.35,5.41.36-.13,8.05-3,9.27-1s-4.05,7.06-4.05,7.06,4.83-1.11,5.42.12C64.92,16.56,62.69,18.7,61.1,20.08Z"/><path class="cls-11" d="M61.1,20.08a5.73,5.73,0,0,0,.88-3c-.3-1.38-5.58.31-5.58.31s5.28-6,4.45-7.38-9.32,1.75-9.32,1.75,2-4,.46-4.93c-1-.6-5.72,1.65-8.92,3.3,3.78-2.86,9.46-6.79,11.18-5.94,2.55,1.26-.17,5.15-.35,5.41.36-.13,8.05-3,9.27-1s-4.05,7.06-4.05,7.06,4.83-1.11,5.42.12C64.92,16.56,62.69,18.7,61.1,20.08Z"/><path class="cls-9" d="M40.9,30.43c-.45,1.42-2.58,2-4.75,1.34S32.57,29.37,33,28s2.57-2,4.75-1.33S41.34,29,40.9,30.43Z"/><path class="cls-12" d="M46.71,31.74c0,.55-.19,1-.43,1s-.42-.44-.42-1,.19-1,.42-1S46.71,31.19,46.71,31.74Z"/><path class="cls-12" d="M56,31c0,.55-.19,1-.43,1s-.42-.45-.42-1,.19-1,.42-1S56,30.42,56,31Z"/><path class="cls-13" d="M52.76,35.6s-3.88.87-6-1.07a2.44,2.44,0,0,0,2.22,2.8A3.71,3.71,0,0,0,52.76,35.6Z"/><path class="cls-14" d="M54.57,25.73a2.27,2.27,0,0,1,2.73.37"/><path class="cls-14" d="M47.13,26.25a2.82,2.82,0,0,0-3.21.66"/><path class="cls-15" d="M52.84,31.14a6.6,6.6,0,0,1,.11,2.8"/><path class="cls-16" d="M40,42.41c-.12-.28-2.48-4.22-2.73-7.9s1-7,1.91-6.57,0,5.75,0,5.75.92-5.8,2.15-5.43-.27,7-.27,7,1.33-4.84,2.23-4.66-.49,6.77-.49,6.77.58-4.07,1.72-4-.38,5.15-.38,5.15,2.87,2.86,1.18,6.33Z"/><path class="cls-16" d="M40,42.41s-8.89,19.13-8.25,23c.35,2.15,2.57,3.28,4.41,3.36s4.38-.79,5.52-6c1.4-6.41,3.62-18,3.62-18Z"/><polygon class="cls-17" points="81.05 89.36 56.05 90.95 76.3 78.3 81.05 89.36"/><path class="cls-9" d="M105.41,99.68c.06.56,5.36,7.6,5.36,7.6L105,111.85l-5.36-6.5Z"/><path class="cls-3" d="M107.61,117.79a1.86,1.86,0,0,1-.81-.6c-1.42-1.64-2.16-5.75-2.16-5.75l5.61-4.86s7.24-2.76,10.3-2.55a2.1,2.1,0,0,1,1,.26C123.46,105.58,109.54,118.45,107.61,117.79Z"/><path class="cls-18" d="M107.61,117.79a1.86,1.86,0,0,1-.81-.6c2.42-1.66,9.74-7,13.75-13.16a2.1,2.1,0,0,1,1,.26C123.46,105.58,109.54,118.45,107.61,117.79Z"/><path class="cls-18" d="M111.08,109.47h0a.44.44,0,0,1-.54-.31l0-.17a.55.55,0,0,1,0-.18,6.82,6.82,0,0,1,.12-2.66.44.44,0,0,1,.54-.33.45.45,0,0,1,.32.55,5.91,5.91,0,0,0,0,2.58A.44.44,0,0,1,111.08,109.47Z"/><path class="cls-18" d="M112.9,108.76a.44.44,0,0,1-.55-.3h0a5,5,0,0,1,0-2.9.45.45,0,0,1,.86.28,4.11,4.11,0,0,0,0,2.38.44.44,0,0,1-.31.55Z"/><path class="cls-18" d="M114.52,108l-.08,0a.46.46,0,0,1-.49-.4,8.33,8.33,0,0,1,.14-2.49.45.45,0,1,1,.87.19,7.46,7.46,0,0,0-.12,2.21A.44.44,0,0,1,114.52,108Z"/><path class="cls-19" d="M39.84,76.41s2.84,18.1,15.4,14.76,30-11.65,30-11.65l16.22,32.54,8.55-8.12S95.15,68.8,89.88,67.31c-7.58-2.14-22.25,4.91-22.25,4.91Z"/><path class="cls-9" d="M99.65,113.44c-.09.57,3.12,8.77,3.12,8.77L96,125.05l-3.41-7.7Z"/><path class="cls-3" d="M96.9,131.48a1.87,1.87,0,0,1-.62-.79c-.92-2-.53-6.13-.53-6.13l6.71-3.17s7.71-.71,10.61.31a2.08,2.08,0,0,1,.89.53C115.45,124,98.59,132.64,96.9,131.48Z"/><path class="cls-18" d="M96.9,131.48a1.87,1.87,0,0,1-.62-.79c2.78-.95,11.26-4.11,16.79-9a2.08,2.08,0,0,1,.89.53C115.45,124,98.59,132.64,96.9,131.48Z"/><path class="cls-18" d="M102.48,124.4h0A.46.46,0,0,1,102,124v-.19a.33.33,0,0,1,0-.17,6.61,6.61,0,0,1,.82-2.53.44.44,0,0,1,.61-.17.45.45,0,0,1,.17.61,5.81,5.81,0,0,0-.74,2.47A.45.45,0,0,1,102.48,124.4Z"/><path class="cls-18" d="M104.42,124.21a.44.44,0,0,1-.44-.44h0a5,5,0,0,1,.82-2.78.45.45,0,0,1,.75.49,4.07,4.07,0,0,0-.68,2.29.45.45,0,0,1-.44.45Z"/><path class="cls-18" d="M106.18,123.93h-.08a.44.44,0,0,1-.36-.51,8.23,8.23,0,0,1,.8-2.36.45.45,0,0,1,.79.41,7.44,7.44,0,0,0-.71,2.1A.44.44,0,0,1,106.18,123.93Z"/><path class="cls-17" d="M72.55,85.09l4.32,4.3L93.32,124l9.45-4.46S91.42,76.92,84.5,78.34,72.55,85.09,72.55,85.09Z"/><rect class="cls-20" x="44.52" y="67.37" width="47.3" height="1.43"/><rect class="cls-21" x="44.52" y="67.37" width="18.22" height="1.43"/><path class="cls-20" d="M61.49,68.1a.37.37,0,0,1-.37.37.38.38,0,0,1-.37-.37.37.37,0,0,1,.37-.37A.36.36,0,0,1,61.49,68.1Z"/><rect class="cls-20" x="57.23" y="67.89" width="2.73" height="0.46"/><rect class="cls-20" x="52.51" y="67.85" width="2.73" height="0.46"/><rect class="cls-20" x="45.73" y="67.85" width="2.73" height="0.46"/><polygon class="cls-22" points="94.42 67.6 62.42 67.56 69.42 44.81 101.49 44.79 94.42 67.6"/><polygon class="cls-21" points="94.42 67.6 63.28 67.56 70.06 45.55 101.26 45.53 94.42 67.6"/><path class="cls-23" d="M62.42,134.15h0A1.15,1.15,0,0,1,61.26,133V71.9a1.15,1.15,0,0,1,1.16-1.15h0a1.15,1.15,0,0,1,1.15,1.15V133A1.15,1.15,0,0,1,62.42,134.15Z"/><path class="cls-23" d="M28,134.15h0A1.14,1.14,0,0,1,26.81,133V71.9A1.14,1.14,0,0,1,28,70.75h0a1.14,1.14,0,0,1,1.15,1.15V133A1.14,1.14,0,0,1,28,134.15Z"/><path class="cls-23" d="M107.14,134.15h0A1.15,1.15,0,0,1,106,133V71.9a1.15,1.15,0,0,1,1.15-1.15h0a1.15,1.15,0,0,1,1.16,1.15V133A1.15,1.15,0,0,1,107.14,134.15Z"/><rect class="cls-24" x="21.74" y="68.79" width="89.18" height="3.91"/></svg>
