<svg id="Layer_1" data-name="Layer 1" xmlns="http://www.w3.org/2000/svg" xmlns:xlink="http://www.w3.org/1999/xlink" viewBox="0 0 195.2 149.07"><defs><style>.cls-1,.cls-14,.cls-15{fill:none;}.cls-2{fill:#aae5d7;}.cls-3{fill:#f0fcf7;}.cls-4{fill:#1abd9c;}.cls-5{fill:#d5e2da;}.cls-6{clip-path:url(#clip-path);}.cls-7{fill:#ede0be;}.cls-8{fill:#0aa1f0;}.cls-9{fill:#e1ae9c;}.cls-10{fill:#c6998b;}.cls-11{fill:#bcb199;}.cls-12{fill:#333;}.cls-13{fill:#fff;}.cls-14{stroke:#c55b4d;stroke-width:0.75px;}.cls-14,.cls-15{stroke-linecap:round;stroke-linejoin:round;}.cls-15{stroke:#2d1b0f;}.cls-16{fill:#2f4957;}.cls-17{fill:#3c5e6d;}.cls-18{fill:#bcb3a6;}.cls-19{fill:#dbd8cc;}.cls-20{fill:#f2f1e7;}.cls-21{fill:#99443d;}.cls-22{fill:#c55b4d;}.cls-23{fill:#c4908c;}.cls-24{fill:#23363f;}</style><clipPath id="clip-path"><rect class="cls-1" x="0.97" y="14.59" width="204.01" height="121.46"/></clipPath></defs><path class="cls-2" d="M122.6,0a63.87,63.87,0,0,0-24.19,5.4c-11.33,5-17.73,16.47-24.87,26-6,8.09-13.2,16-22.75,19.28-9.06,3.09-19.18,1.59-28.28,4.58C5.68,60.85-3,81.42.94,98.7s17.76,30.93,33.43,39.21c32.6,17.23,74.17,13.83,105.57-5.49,17.4-10.71,32.2-26.31,39.65-45.33,14.32-36.61-4.35-79.18-45-86.2A61.93,61.93,0,0,0,122.6,0Z"/><rect class="cls-3" x="10.59" y="28.75" width="168.06" height="107.29"/><rect class="cls-4" x="10.59" y="28.75" width="168.06" height="9.09"/><path class="cls-3" d="M152.61,33.3a2,2,0,1,1-2-2A2,2,0,0,1,152.61,33.3Z"/><path class="cls-3" d="M162.39,33.3a2,2,0,1,1-2-2A2,2,0,0,1,162.39,33.3Z"/><path class="cls-3" d="M172.12,33.3a2,2,0,1,1-2-2A2,2,0,0,1,172.12,33.3Z"/><rect class="cls-5" x="160.55" y="53.69" width="6.97" height="82.21"/><rect class="cls-5" x="139.65" y="76.79" width="6.97" height="59.11"/><rect class="cls-5" x="66.65" y="65.78" width="6.97" height="70.12"/><rect class="cls-5" x="20.04" y="66.24" width="6.97" height="70.12"/><rect class="cls-5" x="44.08" y="46.07" width="6.97" height="89.83"/><g class="cls-6"><path class="cls-7" d="M135.67,76.92c-.42,2.64-4.59,3.41-7.92,7.2s4.2,4.59,4.66,7.55-.09,7-5.18,8.87-49,8.61-53.49,1.32,1-12.44,3-14.07-7.52-2.61-7.49-7.94c0-4.32,9-5,7.67-7.45s-8.22-1.76-7.67-5.16,11.39-5,11.57-7.1c.09-1.08-.61-4.8-1-9.37h0c-.35-4.39.76-11.11,2.06-15.42,0,0,4.77-4.49,9.79-5.75a65.34,65.34,0,0,1,13.52-1.7l15.11,10,1.58-4.39a.19.19,0,0,1,0,.07.19.19,0,0,1,0,.1c.09.45.36,1.72.66,3.4.73,4.34,1.62,11.54.13,15.16-2.21,5.4,6.21,6.35,8.54,8.27s.34,5.27-3.76,7.86S136.56,71.41,135.67,76.92Z"/><polygon class="cls-8" points="123.59 98.61 112.88 85.58 86.15 83.65 76.73 136.05 119.7 136.38 123.59 98.61"/><path class="cls-9" d="M114.5,86.8S98,107.36,95,107.36s-8.85-23.71-8.85-23.71A8.31,8.31,0,0,0,91.37,81a9.15,9.15,0,0,0,1.56-3.84c1.1-5.11.7-12.59.7-12.59l16.89-3c-.31,0-2.74,7.21-2.42,14C108.31,80.41,109.88,85,114.5,86.8Z"/><path class="cls-10" d="M108.1,75.62c-4.56,1.3-10.55,2.48-15.17,1.51,1.1-5.11.7-12.59.7-12.59l16.89-3C110.21,61.58,107.78,68.79,108.1,75.62Z"/><path class="cls-10" d="M127,52.93c.36,1.93-1.85,4-4.94,4.55S116.15,57,115.79,55s1.84-4,4.93-4.56S126.61,51,127,52.93Z"/><path class="cls-10" d="M88,55c-.33,1.94-3.11,3.09-6.21,2.56s-5.34-2.52-5-4.46S79.87,50,83,50.48,88.32,53,88,55Z"/><path class="cls-9" d="M121.12,50.58c-.75,12.14-9.21,22.68-20.36,22.68-10.61,0-17.67-12.84-16.93-25s9.7-21.47,20-20.84S121.86,38.44,121.12,50.58Z"/><path class="cls-10" d="M120.38,49.42l-4.63-4.82s-13,1.28-19.16-7.64c0,0-1.59,6-10.44,10.51l-2.3,3.29s-3.61-18.55,9.08-21.27,26.59,2.44,28.45,10.63S120.38,49.42,120.38,49.42Z"/><path class="cls-7" d="M120.87,53.13,118,43.22s-15.29.24-21.4-10.77c0,0-5.63,11.5-11.25,14.2L83.76,54c-.36-.14-1.65-3.48-2.25-8a30.79,30.79,0,0,1,.08-9.13v0c1-5.82,4.29-11.43,12.24-13.67,9.06-2.56,18.49-1.93,24.24,3a14.9,14.9,0,0,1,4.68,7.28.19.19,0,0,1,0,.07s0,.07,0,.1a17.81,17.81,0,0,1,.66,3.4C123.91,41.35,123.17,46.69,120.87,53.13Z"/><path class="cls-11" d="M118.07,26.17c-6.4-1.1-17.14-1.79-25.53,3.42-5,3.06-9.07,8.16-11,16.43a44.33,44.33,0,0,0-.83,4.74c-.35-4.39-.39-9.56.91-13.87v0c1-5.82,4.29-11.43,12.24-13.67C102.89,20.63,112.32,21.26,118.07,26.17Z"/><path class="cls-12" d="M110.52,53.38c0,1-.42,1.88-.94,1.88s-.94-.84-.94-1.88.42-1.89.94-1.89S110.52,52.33,110.52,53.38Z"/><path class="cls-12" d="M94.26,52.21c0,1-.42,1.88-.94,1.88s-.94-.84-.94-1.88.42-1.89.94-1.89S94.26,51.17,94.26,52.21Z"/><path class="cls-13" d="M107.36,60.81c-.25.1-9.34,1.3-9.34,1.3s1.21,4.82,5,4.39S107.36,60.81,107.36,60.81Z"/><path class="cls-14" d="M100.29,52.16a38.89,38.89,0,0,0,.13,6.2"/><path class="cls-15" d="M108.53,45.54a3.71,3.71,0,0,1,4,.81"/><path class="cls-15" d="M89.43,45.84a4.27,4.27,0,0,1,4.83-.66"/><path class="cls-16" d="M88,82.81S82.45,115,80.58,136l-16.65.32-16.39.32S64.43,92.94,69.8,88.54a12.49,12.49,0,0,1,1.73-1.18C77.51,84,88,82.81,88,82.81Z"/><path class="cls-17" d="M69.8,88.54a12.49,12.49,0,0,1,1.73-1.18,60.58,60.58,0,0,0-3.75,13.92c-.82,6.59-2.88,25.93-3.85,35.08l-16.39.32S64.43,92.94,69.8,88.54Z"/><path class="cls-18" d="M39,87s-7.65-13.5-16.28-16.67l2,8.82Z"/><path class="cls-19" d="M39,87s-8.33-13.11-18.31-14l-4.32,5.18,18.93,15,2.63-1.7Z"/><polygon class="cls-19" points="62.65 73.26 65.39 81.97 64.02 85.13 63.15 80.04 62.65 73.26"/><path class="cls-20" d="M37.94,91.41,39,87s9.62-11.86,23.64-13.72l.77,7.6Z"/><path class="cls-21" d="M37.94,91.41S27.25,77.25,14.88,77.5L28.36,114s8.23.5,18.9,11.07Z"/><path class="cls-22" d="M47.26,125.06c-.74.7-9.32-33.65-9.32-33.65s9-9.91,27.45-12.76l7.41,37.06S55.43,117.26,47.26,125.06Z"/><path class="cls-23" d="M44.82,93.11c4.75-4.45,10.06-7.25,16.22-7.53l2.17,9.84c-6,.71-10.87,4-15.3,7.69Z"/><path class="cls-24" d="M41.34,138.06s-2.44-14.35,11.91-11.43l.65,5.29Z"/><path class="cls-9" d="M48,137.91l-4.14-6.61-.74-1.19c-2.7-3.38-14.8-19.8-13.54-22.75S38,115.63,38,115.63s-4.45-12.37-2.64-13.4,7.94,14.44,7.94,14.44-1.36-12.26,0-12.67,2.18,2.28,2.18,2.28.64-1.29,1.83-1.11,3.42,12.33,3.42,12.33,2.24,2.56,2.52,7.65c0,.47,0,1,0,1.48h0s2.33,6.2,2.62,6.48S48,137.91,48,137.91Z"/><path class="cls-10" d="M48,137.91l-4.14-6.61c4-.1,7.49-3.73,9.38-6.15,0,.47,0,1,0,1.48h0s2.33,6.2,2.62,6.48S48,137.91,48,137.91Z"/><path class="cls-10" d="M45.62,106a57.86,57.86,0,0,0,1.55,11.32c.08.33-.42.47-.5.14a41.43,41.43,0,0,1-1.48-11.76Z"/><path class="cls-16" d="M53.25,126.29a29.19,29.19,0,0,1-11.91,11.77l6,6,15.35-7.64Z"/><path class="cls-16" d="M147.52,136.05H129.2l-20.61.75s.17-40.37,4.29-51.22c0,0,10.44,5,16.45,9.58a13.36,13.36,0,0,1,3.85,3.91C135.64,104,147.52,136.05,147.52,136.05Z"/><path class="cls-17" d="M147.52,136.05H126.37c-1.56-12.28-1.33-35.78.65-39.2a2.93,2.93,0,0,1,2.31-1.69,13.36,13.36,0,0,1,3.85,3.91C135.64,104,147.52,136.05,147.52,136.05Z"/><path class="cls-24" d="M157.21,138.24s1.59-7.87-2.29-10.37-5.47,4.57-5.47,4.57l3.39,4.92Z"/><path class="cls-10" d="M151.28,121.79c.12-.21,1.48-8.12,5.48-11s9.05-9.89,10.08-9.6-4.73,18.18-4.73,18.18Z"/><path class="cls-21" d="M154.68,118.4s39.25-60.79,40.49-60.48-38,61.93-38,61.93Z"/><path class="cls-9" d="M174.66,115.82c-.68,3.81-18.23,15.82-18.23,15.82l-.33.37-4.45,5-5.2-9.67,2.93-3.64-.12-.13a8.24,8.24,0,0,1,.86-2.09c2.79-4.85,9.42-4.57,9.42-4.57s-2.23-8.85-1-10.18c.79-.88,2,.26,2.15.37-.11-.15-1.4-2,.26-3s5.58,9.1,5.85,9.75c-.15-.68-2.65-11.89-.94-14.43s4.49,11.33,4.49,11.33.68-14.84,2.45-15.66S175.34,112,174.66,115.82Z"/><path class="cls-10" d="M156.1,132l-4.45,5-5.2-9.67,2.93-3.64-.12-.13a8.24,8.24,0,0,1,.86-2.09C150.83,124.83,152.49,129.77,156.1,132Z"/><path class="cls-10" d="M160.57,107h0c2.2,3.14,3.29,6.79,4.34,10.5a.29.29,0,0,1-.56.15c-1-3.87-2.19-7.78-4.47-11.11Z"/><path class="cls-16" d="M134,135.44c.48,0,15.73-13.18,15.73-13.18s1.22,14.42,7.47,16l-6.65,5Z"/></g></svg>
